<svg width="259" height="129" viewBox="0 0 259 129" fill="none" xmlns="http://www.w3.org/2000/svg">
<path d="M0 12C0 5.3726 5.37258 0 12 0H74.7406C81.368 0 86.7406 5.37258 86.7406 12V60.0802C86.7406 66.7076 81.368 72.0802 74.7406 72.0802H12C5.37259 72.0802 0 66.7076 0 60.0802V12Z" fill="#3954EC"/>
<rect x="41.5386" y="56.1978" width="217.462" height="72.0802" rx="12" fill="#EBEDFF"/>
<path d="M41.5386 68.1978C41.5386 61.5703 46.9112 56.1978 53.5386 56.1978H116.279C122.907 56.1978 128.279 61.5703 128.279 68.1978V116.278C128.279 122.905 122.907 128.278 116.279 128.278H53.5386C46.9112 128.278 41.5386 122.905 41.5386 116.278V68.1978Z" fill="#9DB3FE"/>
<path d="M140.256 84.1085C140.256 80.7349 142.991 78 146.365 78H209.893C213.267 78 216.002 80.7349 216.002 84.1085C216.002 87.4821 213.267 90.217 209.893 90.217H178.129H146.365C142.991 90.217 140.256 87.4821 140.256 84.1085Z" fill="white"/>
<path d="M141.5 98.9571C141.5 95.5835 144.235 92.8486 147.608 92.8486H231.906C235.279 92.8486 238.014 95.5835 238.014 98.9571C238.014 102.331 235.279 105.066 231.906 105.066H147.608C144.235 105.066 141.5 102.331 141.5 98.9571Z" fill="white"/>
<path d="M67.7914 106.746C66.4309 105.422 65.7506 103.815 65.7506 101.924H61.0859V81.5045C61.0859 80.2567 61.5431 79.1888 62.4573 78.3009C63.3716 77.413 64.4694 76.9683 65.7506 76.9668H98.4033L112.397 90.58V101.924H107.733C107.733 103.815 107.052 105.422 105.692 106.746C104.331 108.069 102.679 108.731 100.736 108.731C98.792 108.731 97.1399 108.069 95.7794 106.746C94.4189 105.422 93.7386 103.815 93.7386 101.924H79.7446C79.7446 103.815 79.0643 105.422 77.7038 106.746C76.3433 108.069 74.6912 108.731 72.7476 108.731C70.804 108.731 69.1519 108.069 67.7914 106.746ZM93.7386 88.3111H103.068L96.0709 81.5045H93.7386V88.3111ZM79.7446 88.3111H89.0739V81.5045H79.7446V88.3111ZM65.7506 88.3111H75.0799V81.5045H65.7506V88.3111ZM74.8187 103.939C75.3816 103.39 75.663 102.718 75.663 101.924C75.663 101.13 75.3808 100.459 74.8164 99.9096C74.252 99.3605 73.5624 99.0867 72.7476 99.0883C71.9328 99.0898 71.2425 99.3643 70.6765 99.9119C70.1105 100.459 69.8291 101.13 69.8322 101.924C69.8353 102.718 70.1175 103.39 70.6788 103.939C71.2401 104.488 71.9297 104.762 72.7476 104.76C73.5655 104.759 74.2558 104.484 74.8187 103.937M102.807 103.937C103.37 103.389 103.651 102.718 103.651 101.924C103.651 101.13 103.369 100.459 102.804 99.9096C102.24 99.3605 101.55 99.0867 100.736 99.0883C99.9208 99.0898 99.2305 99.3643 98.6645 99.9119C98.0985 100.459 97.8171 101.13 97.8202 101.924C97.8233 102.718 98.1055 103.39 98.6668 103.939C99.2281 104.488 99.9177 104.762 100.736 104.76C101.553 104.759 102.244 104.484 102.807 103.937Z" fill="#03001A"/>
<rect width="217.462" height="72.0802" rx="12" fill="white"/>
<rect x="96.5142" y="18.3257" width="75.7453" height="12.217" rx="6.10849" fill="#D9D9D9"/>
<rect x="96.5142" y="36.6509" width="96.5142" height="12.217" rx="6.10849" fill="#D9D9D9"/>
<path d="M34.6445 45.9017L55.8471 40.3392C56.4427 40.1814 56.8897 39.8168 57.1883 39.2456C57.4869 38.6743 57.556 38.092 57.3956 37.4987C57.2352 36.9054 56.8882 36.4619 56.3545 36.1684C55.8209 35.8749 55.2547 35.8055 54.6559 35.9601L48.8193 37.4987L39.29 28.6223L35.9548 29.4508L41.6723 39.3923L35.9548 40.8126L32.9769 38.5639L30.7137 39.1556L34.6445 45.9017ZM61.2073 56.1983H23.0903C21.78 56.1983 20.6588 55.7352 19.7265 54.8089C18.7942 53.8826 18.3273 52.7677 18.3257 51.4642V41.9961C19.636 41.9961 20.758 41.5329 21.6919 40.6066C22.6258 39.6803 23.0919 38.5655 23.0903 37.262C23.0887 35.9586 22.6226 34.8445 21.6919 33.9197C20.7612 32.995 19.6391 32.5311 18.3257 32.5279V23.0598C18.3257 21.7579 18.7926 20.6438 19.7265 19.7175C20.6603 18.7912 21.7816 18.3273 23.0903 18.3257H61.2073C62.5176 18.3257 63.6396 18.7896 64.5735 19.7175C65.5074 20.6454 65.9735 21.7595 65.9719 23.0598V51.4642C65.9719 52.7661 65.5058 53.881 64.5735 54.8089C63.6412 55.7367 62.5191 56.1999 61.2073 56.1983ZM61.2073 51.4642V23.0598H23.0903V29.0957C24.5594 29.9636 25.7212 31.118 26.5756 32.5587C27.4301 33.9994 27.8565 35.5672 27.8549 37.262C27.8533 38.9568 27.4269 40.5254 26.5756 41.9677C25.7243 43.41 24.5626 44.5635 23.0903 45.4283V51.4642H61.2073Z" fill="#03001A"/>
</svg>
