<svg width="308" height="163" viewBox="0 0 308 163" fill="none" xmlns="http://www.w3.org/2000/svg">
<rect x="103" y="87" width="189" height="48" rx="24" fill="#9DB3FE"/>
<rect x="20" y="40" width="288" height="48" rx="24" fill="white"/>
<path d="M272.5 149.958C271.308 149.958 270.289 149.477 269.441 148.515C268.593 147.553 268.168 146.395 268.167 145.042C268.165 143.688 268.59 142.531 269.441 141.57C270.291 140.61 271.311 140.128 272.5 140.125C273.689 140.122 274.709 140.604 275.562 141.57C276.414 142.537 276.838 143.694 276.833 145.042C276.829 146.389 276.405 147.547 275.562 148.515C274.718 149.484 273.697 149.965 272.5 149.958ZM262.479 127.833H282.521L285.283 121.565C285.644 120.745 285.617 119.946 285.201 119.168C284.785 118.389 284.162 118 283.333 118H261.667C260.836 118 260.214 118.389 259.799 119.168C259.384 119.946 259.357 120.745 259.717 121.565L262.479 127.833ZM264.7 162.25H280.3C283.55 162.25 286.312 160.97 288.588 158.41C290.863 155.85 292 152.705 292 148.975C292 147.418 291.765 145.902 291.296 144.427C290.826 142.952 290.158 141.62 289.292 140.432L283.658 132.75H261.342L255.708 140.432C254.842 141.62 254.174 142.952 253.704 144.427C253.235 145.902 253 147.418 253 148.975C253 152.703 254.129 155.848 256.387 158.41C258.644 160.972 261.415 162.252 264.7 162.25Z" fill="#03001A"/>
<rect x="33" y="59" width="247" height="10" rx="5" fill="#03001A"/>
<circle cx="114" cy="64" r="9" fill="#FDFDFD" stroke="#03001A" stroke-width="4"/>
<path d="M14.7222 44.1667H19.1389V38.2778H25.0278V33.8611H19.1389V27.9722H14.7222V33.8611H8.83333V38.2778H14.7222V44.1667ZM29.4444 41.9583H44.1667V37.5417H29.4444V41.9583ZM29.4444 34.5972H44.1667V30.1806H29.4444V34.5972ZM9.56944 18.2556H24.2917V13.8389H9.56944V18.2556ZM5.88889 53C4.26944 53 2.88359 52.4239 1.73133 51.2716C0.579074 50.1193 0.00196296 48.7325 0 47.1111V5.88889C0 4.26944 0.577111 2.88359 1.73133 1.73133C2.88556 0.579074 4.27141 0.00196296 5.88889 0H47.1111C48.7306 0 50.1174 0.577111 51.2716 1.73133C52.4258 2.88556 53.002 4.27141 53 5.88889V47.1111C53 48.7306 52.4239 50.1174 51.2716 51.2716C50.1193 52.4258 48.7325 53.002 47.1111 53H5.88889ZM32.6833 23.4083L36.8056 19.2861L40.9278 23.4083L44.0194 20.3167L39.8972 16.0472L44.0194 11.925L40.9278 8.83333L36.8056 12.9556L32.6833 8.83333L29.5917 11.925L33.7139 16.0472L29.5917 20.3167L32.6833 23.4083Z" fill="#CDCDCD"/>
<path d="M176.047 106.688V118H173.688V108.922H173.625L171.031 110.547V108.469L173.828 106.688H176.047ZM183.062 118.156C180.234 118.156 178.516 116.047 178.516 112.344C178.516 108.641 180.234 106.531 183.062 106.531C185.891 106.531 187.609 108.656 187.609 112.344C187.609 116.062 185.891 118.156 183.062 118.156ZM183.062 116.219C184.375 116.219 185.219 114.953 185.203 112.344C185.203 109.766 184.375 108.453 183.062 108.453C181.75 108.453 180.922 109.766 180.922 112.344C180.906 114.953 181.75 116.219 183.062 116.219ZM191.312 116.844L189.969 121.297H188.312L189.094 116.844H191.312ZM197.312 118.156C194.484 118.156 192.766 116.047 192.766 112.344C192.766 108.641 194.484 106.531 197.312 106.531C200.141 106.531 201.859 108.656 201.859 112.344C201.859 116.062 200.141 118.156 197.312 118.156ZM197.312 116.219C198.625 116.219 199.469 114.953 199.453 112.344C199.453 109.766 198.625 108.453 197.312 108.453C196 108.453 195.172 109.766 195.172 112.344C195.156 114.953 196 116.219 197.312 116.219ZM207.875 118.156C205.047 118.156 203.328 116.047 203.328 112.344C203.328 108.641 205.047 106.531 207.875 106.531C210.703 106.531 212.422 108.656 212.422 112.344C212.422 116.062 210.703 118.156 207.875 118.156ZM207.875 116.219C209.188 116.219 210.031 114.953 210.016 112.344C210.016 109.766 209.188 108.453 207.875 108.453C206.562 108.453 205.734 109.766 205.734 112.344C205.719 114.953 206.562 116.219 207.875 116.219ZM218.438 118.156C215.609 118.156 213.891 116.047 213.891 112.344C213.891 108.641 215.609 106.531 218.438 106.531C221.266 106.531 222.984 108.656 222.984 112.344C222.984 116.062 221.266 118.156 218.438 118.156ZM218.438 116.219C219.75 116.219 220.594 114.953 220.578 112.344C220.578 109.766 219.75 108.453 218.438 108.453C217.125 108.453 216.297 109.766 216.297 112.344C216.281 114.953 217.125 116.219 218.438 116.219Z" fill="white"/>
</svg>
