<svg width="278" height="121" viewBox="0 0 278 121" fill="none" xmlns="http://www.w3.org/2000/svg">
<rect x="80.9453" y="15.0205" width="196.938" height="57.5793" rx="16" fill="#CDCDCD"/>
<rect x="31.7095" y="53.4067" width="196.938" height="67.5931" rx="16" fill="white"/>
<path d="M256.396 99.4C254.66 99.4 253.102 98.8963 251.723 97.8889C250.343 96.8814 249.386 95.5925 248.852 94.0222H235.033C232.096 94.0222 229.581 92.9691 227.489 90.8628C225.398 88.7565 224.352 86.2245 224.352 83.2667C224.352 80.3089 225.398 77.7769 227.489 75.6706C229.581 73.5643 232.096 72.5111 235.033 72.5111H240.374C241.842 72.5111 243.1 71.985 244.147 70.9327C245.194 69.8805 245.716 68.614 245.714 67.1333C245.713 65.6527 245.19 64.3871 244.147 63.3366C243.104 62.2862 241.846 61.7591 240.374 61.7556H226.555C225.976 63.3241 225.008 64.613 223.649 65.6222C222.291 66.6314 220.745 67.1351 219.011 67.1333C216.786 67.1333 214.894 66.3491 213.337 64.7806C211.779 63.212 211 61.3074 211 59.0667C211 56.8259 211.779 54.9213 213.337 53.3528C214.894 51.7843 216.786 51 219.011 51C220.747 51 222.294 51.5046 223.652 52.5138C225.01 53.5231 225.978 54.8111 226.555 56.3778H240.374C243.311 56.3778 245.826 57.4309 247.918 59.5372C250.009 61.6435 251.055 64.1756 251.055 67.1333C251.055 70.0911 250.009 72.6232 247.918 74.7295C245.826 76.8357 243.311 77.8889 240.374 77.8889H235.033C233.564 77.8889 232.308 78.4159 231.263 79.47C230.218 80.524 229.694 81.7896 229.692 83.2667C229.691 84.7438 230.214 86.0102 231.263 87.0661C232.311 88.1219 233.568 88.648 235.033 88.6445H248.852C249.431 87.0759 250.399 85.788 251.757 84.7805C253.116 83.7731 254.662 83.2685 256.396 83.2667C258.621 83.2667 260.513 84.0509 262.07 85.6195C263.628 87.188 264.407 89.0926 264.407 91.3333C264.407 93.5741 263.628 95.4787 262.07 97.0472C260.513 98.6158 258.621 99.4 256.396 99.4ZM220.915 60.9838C221.426 60.4676 221.681 59.8285 221.681 59.0667C221.681 58.3048 221.425 57.6667 220.912 57.1522C220.4 56.6377 219.766 56.3796 219.011 56.3778C218.256 56.376 217.622 56.6341 217.11 57.1522C216.597 57.6702 216.341 58.3084 216.341 59.0667C216.341 59.8249 216.597 60.464 217.11 60.9838C217.622 61.5037 218.256 61.7609 219.011 61.7556C219.766 61.7502 220.401 61.4947 220.915 60.9838Z" fill="#03001A"/>
<path d="M0 31.7772C0 27.3814 0.840732 23.2503 2.5222 19.3841C4.20366 15.5179 6.48367 12.1548 9.36221 9.29483C12.2408 6.43488 15.6282 4.17129 19.5246 2.50404C23.421 0.8368 27.582 0.00211848 32.0076 0C38.7825 0 44.8245 1.85367 50.1334 5.56101C55.4424 9.26835 59.2961 14.0614 61.6946 19.9402C62.068 20.8405 62.0819 21.7409 61.7362 22.6413C61.3905 23.5416 60.7632 24.1507 59.8541 24.4684C59.0006 24.7333 58.1876 24.6538 57.4152 24.2301C56.6427 23.8064 56.0954 23.1709 55.7732 22.3235C54.4929 19.1458 52.6524 16.3388 50.2519 13.9025C47.8513 11.4663 44.9706 9.58612 41.6098 8.26207V9.53316C41.6098 11.2809 40.9836 12.7776 39.731 14.0233C38.4784 15.2689 36.9709 15.8907 35.2083 15.8886H28.8068V22.244C28.8068 23.1444 28.4995 23.8996 27.885 24.5098C27.2704 25.1199 26.5108 25.4239 25.6061 25.4218H19.2045V31.7772H22.4053C23.3122 31.7772 24.0729 32.0823 24.6874 32.6924C25.302 33.3025 25.6082 34.0567 25.6061 34.9549V41.3104H22.4053L7.04166 26.0573C6.88163 27.0106 6.73546 27.9639 6.60316 28.9173C6.47086 29.8706 6.40365 30.8239 6.40151 31.7772C6.40151 38.2386 8.54922 43.879 12.8446 48.6986C17.1401 53.5181 22.5408 56.2986 29.0469 57.0401C29.9004 57.146 30.6078 57.504 31.169 58.1141C31.7302 58.7243 32.0097 59.4784 32.0076 60.3767C32.0054 61.2749 31.6982 62.0301 31.0857 62.6424C30.4733 63.2546 29.7404 63.5057 28.8868 63.3955C20.7249 62.6011 13.8699 59.2115 8.32197 53.2268C2.77399 47.2421 0 40.0922 0 31.7772ZM58.8939 59.7411L50.892 51.7968C49.7718 52.4324 48.5715 52.962 47.2912 53.3857C46.0109 53.8094 44.6506 54.0212 43.2102 54.0212C39.2093 54.0212 35.809 52.6315 33.0094 49.8521C30.2098 47.0726 28.8089 43.6958 28.8068 39.7215C28.8047 35.7472 30.2055 32.3714 33.0094 29.5941C35.8133 26.8168 39.2135 25.426 43.2102 25.4218C47.2069 25.4175 50.6082 26.8083 53.4142 29.5941C56.2202 32.3799 57.62 35.7557 57.6136 39.7215C57.6136 41.1515 57.4002 42.502 56.9735 43.7731C56.5467 45.0442 56.0132 46.2358 55.3731 47.348L63.375 55.2923C63.9618 55.8749 64.2552 56.6164 64.2552 57.5167C64.2552 58.4171 63.9618 59.1586 63.375 59.7411C62.7882 60.3237 62.0413 60.615 61.1345 60.615C60.2276 60.615 59.4807 60.3237 58.8939 59.7411ZM48.8916 45.3619C50.4386 43.826 51.2121 41.9459 51.2121 39.7215C51.2121 37.4971 50.4386 35.6169 48.8916 34.081C47.3445 32.5451 45.4507 31.7772 43.2102 31.7772C40.9697 31.7772 39.0759 32.5451 37.5289 34.081C35.9818 35.6169 35.2083 37.4971 35.2083 39.7215C35.2083 41.9459 35.9818 43.826 37.5289 45.3619C39.0759 46.8978 40.9697 47.6658 43.2102 47.6658C45.4507 47.6658 47.3445 46.8978 48.8916 45.3619Z" fill="#03001A"/>
</svg>
