<svg width="272" height="174" viewBox="0 0 272 174" fill="none" xmlns="http://www.w3.org/2000/svg">
<rect x="63.3071" y="107.622" width="201.678" height="38.8887" rx="19.4443" fill="white"/>
<rect x="99.4824" y="19.8965" width="93.1519" height="29.8448" rx="8" fill="#9DB3FE"/>
<rect x="70.542" width="93.1519" height="29.8448" rx="8" fill="white"/>
<path d="M266.052 164.823C265.484 165.548 264.759 165.952 263.877 166.034C262.996 166.117 262.192 165.865 261.466 165.278L249.427 155.347L248.034 163.977C247.868 165.037 247.26 165.639 246.208 165.783C245.156 165.927 244.398 165.521 243.933 164.564L231.592 139.18C231.192 138.355 231.268 137.584 231.821 136.866C232.374 136.149 233.103 135.897 234.006 136.11L261.292 142.299C262.31 142.498 262.882 143.117 263.008 144.157C263.134 145.197 262.726 145.946 261.785 146.403L253.619 150.373L265.538 160.179C266.263 160.764 266.673 161.503 266.767 162.395C266.861 163.288 266.623 164.097 266.052 164.823Z" fill="#03001A"/>
<rect y="56.9766" width="221.575" height="9.04387" rx="4.52194" fill="#CDCDCD"/>
<rect y="71.4468" width="154.65" height="9.04387" rx="4.52194" fill="#CDCDCD"/>
<rect y="85.917" width="154.65" height="9.04387" rx="4.52194" fill="#CDCDCD"/>
<path d="M127.844 133H125.312L129.234 121.688H132.25L136.156 133H133.641L132.797 130.391H128.703L127.844 133ZM129.297 128.562H132.203L130.781 124.234H130.703L129.297 128.562ZM140.141 133.141C138.203 133.141 136.688 131.594 136.688 128.766C136.688 125.859 138.266 124.406 140.141 124.406C141.562 124.406 142.234 125.25 142.547 125.938H142.625V121.688H144.938V133H142.656V131.641H142.547C142.219 132.344 141.516 133.141 140.141 133.141ZM140.859 131.297C142.016 131.297 142.672 130.281 142.672 128.75C142.672 127.219 142.016 126.25 140.859 126.25C139.688 126.25 139.062 127.266 139.062 128.75C139.062 130.25 139.688 131.297 140.859 131.297ZM149.922 133.141C147.984 133.141 146.469 131.594 146.469 128.766C146.469 125.859 148.047 124.406 149.922 124.406C151.344 124.406 152.016 125.25 152.328 125.938H152.406V121.688H154.719V133H152.438V131.641H152.328C152 132.344 151.297 133.141 149.922 133.141ZM150.641 131.297C151.797 131.297 152.453 130.281 152.453 128.75C152.453 127.219 151.797 126.25 150.641 126.25C149.469 126.25 148.844 127.266 148.844 128.75C148.844 130.25 149.469 131.297 150.641 131.297ZM164.734 124.516V126.25H163.141V130.391C163.141 131.062 163.469 131.234 163.938 131.25C164.172 131.25 164.578 131.234 164.859 131.203V133.031C164.609 133.078 164.203 133.109 163.625 133.109C161.953 133.109 160.812 132.359 160.828 130.719V126.25H159.656V124.516H160.828V122.484H163.141V124.516H164.734ZM169.922 133.172C167.359 133.172 165.766 131.406 165.766 128.781C165.766 126.156 167.359 124.406 169.922 124.406C172.484 124.406 174.094 126.156 174.094 128.781C174.094 131.406 172.484 133.172 169.922 133.172ZM169.938 131.375C171.125 131.375 171.734 130.266 171.734 128.781C171.734 127.281 171.125 126.172 169.938 126.172C168.734 126.172 168.109 127.281 168.109 128.781C168.109 130.266 168.734 131.375 169.938 131.375ZM179.234 136.188V124.516H181.516V125.938H181.609C181.922 125.25 182.609 124.406 184.031 124.406C185.906 124.406 187.469 125.859 187.469 128.766C187.469 131.594 185.969 133.141 184.031 133.141C182.641 133.141 181.938 132.344 181.609 131.641H181.547V136.188H179.234ZM181.5 128.75C181.5 130.281 182.156 131.297 183.297 131.297C184.484 131.297 185.109 130.25 185.109 128.75C185.109 127.266 184.484 126.25 183.297 126.25C182.141 126.25 181.5 127.219 181.5 128.75ZM191.281 121.688V133H188.969V121.688H191.281ZM192.672 130.625C192.672 128.734 194.203 128.109 195.828 128.016C196.438 127.977 197.578 127.922 197.938 127.906V127.219C197.922 126.516 197.438 126.094 196.578 126.094C195.797 126.094 195.297 126.453 195.172 127.031H192.969C193.109 125.562 194.391 124.406 196.641 124.406C198.484 124.406 200.234 125.234 200.234 127.281V133H198.047V131.828H197.984C197.562 132.609 196.766 133.156 195.5 133.156C193.875 133.156 192.672 132.312 192.672 130.625ZM194.891 130.562C194.891 131.219 195.422 131.562 196.156 131.562C197.203 131.562 197.953 130.859 197.938 129.969V129.344C197.586 129.359 196.602 129.414 196.203 129.453C195.406 129.531 194.891 129.906 194.891 130.562ZM204.312 128.094V133H202V124.516H204.203V126H204.297C204.688 125.016 205.594 124.406 206.844 124.406C208.609 124.406 209.781 125.609 209.766 127.594V133H207.469V128C207.469 126.953 206.891 126.328 205.938 126.328C204.969 126.328 204.312 126.969 204.312 128.094Z" fill="#03001A"/>
</svg>
