<svg width="242" height="113" viewBox="0 0 242 113" fill="none" xmlns="http://www.w3.org/2000/svg">
<rect width="209" height="81" rx="18" fill="white"/>
<rect x="23" y="16" width="120" height="10" rx="5" fill="#D9D9D9"/>
<rect x="23" y="35" width="120" height="10" rx="5" fill="#D9D9D9"/>
<rect x="23" y="54" width="171" height="10" rx="5" fill="#D9D9D9"/>
<path d="M223.15 66.5672C222.517 65.9433 222.2 65.1708 222.2 64.25C222.2 63.3292 222.517 62.5578 223.15 61.936C223.784 61.3142 224.567 61.0022 225.5 61C226.433 60.9978 227.217 61.3098 227.853 61.936C228.489 62.5622 228.804 63.3335 228.8 64.25C228.796 65.1665 228.479 65.9389 227.85 66.5672C227.22 67.1956 226.437 67.5065 225.5 67.5C224.563 67.4935 223.78 67.1847 223.15 66.5672ZM199.1 87L208.01 75.625L213.125 82.125L220.715 72.375L232.1 87H199.1ZM182.6 113C180.785 113 179.232 112.364 177.94 111.092C176.649 109.82 176.002 108.29 176 106.5V61H182.6V106.5H228.8V113H182.6ZM189.2 71.9688V54.5C189.2 52.7125 189.847 51.1828 191.14 49.911C192.434 48.6392 193.987 48.0022 195.8 48H212.3V54.5H195.8V71.9688H189.2ZM195.8 100C193.985 100 192.432 99.3641 191.14 98.0923C189.849 96.8204 189.202 95.2897 189.2 93.5V78.4688H195.8V93.5H212.3V100H195.8ZM218.9 100V93.5H235.4V78.4688H242V93.5C242 95.2875 241.354 96.8182 240.063 98.0923C238.771 99.3662 237.217 100.002 235.4 100H218.9ZM235.4 71.9688V54.5H218.9V48H235.4C237.215 48 238.769 48.637 240.063 49.911C241.356 51.185 242.002 52.7147 242 54.5V71.9688H235.4Z" fill="#03001A"/>
</svg>
