<svg width="267" height="123" viewBox="0 0 267 123" fill="none" xmlns="http://www.w3.org/2000/svg">
<rect x="42.1577" width="177.063" height="33.7263" rx="16.8632" fill="white"/>
<path d="M42 61.8632C42 52.5499 49.5499 45 58.8632 45H202.2C211.513 45 219.063 52.5499 219.063 61.8632C219.063 71.1764 211.513 78.7263 202.2 78.7263H130.532H58.8632C49.5499 78.7263 42 71.1764 42 61.8632Z" fill="#CDCDCD"/>
<rect x="42.1577" y="88.063" width="224.842" height="33.7263" rx="16.8632" fill="white"/>
<path d="M13.6966 23.9363L24.9247 12.378L22.695 10.0828L13.6966 19.3458L9.15763 14.6733L6.92794 16.9685L13.6966 23.9363ZM15.9263 32.7895C13.7232 32.7895 11.6527 32.3588 9.71505 31.4976C7.77735 30.6363 6.09181 29.4684 4.65845 27.994C3.22508 26.5196 2.0906 24.7845 1.25499 22.7887C0.419395 20.7929 0.00106377 18.6616 2.01599e-06 16.3947C-0.00105974 14.1279 0.417271 11.9966 1.25499 10.0008C2.09272 8.005 3.2272 6.26989 4.65845 4.79546C6.08969 3.32103 7.77523 2.15318 9.71505 1.29191C11.6549 0.430635 13.7253 0 15.9263 0C18.1273 0 20.1977 0.430635 22.1376 1.29191C24.0774 2.15318 25.7629 3.32103 27.1942 4.79546C28.6254 6.26989 29.7604 8.005 30.5992 10.0008C31.438 11.9966 31.8558 14.1279 31.8526 16.3947C31.8494 18.6616 31.4311 20.7929 30.5976 22.7887C29.7641 24.7845 28.6297 26.5196 27.1942 27.994C25.7587 29.4684 24.0731 30.6368 22.1376 31.4992C20.202 32.3616 18.1316 32.7916 15.9263 32.7895Z" fill="#03001A"/>
<path d="M14.0995 68.9046L25.6577 57.3463L23.3625 55.051L14.0995 64.314L9.42697 59.6415L7.13171 61.9368L14.0995 68.9046ZM16.3947 77.7577C14.1268 77.7577 11.9955 77.3271 10.0008 76.4658C8.00609 75.6046 6.27099 74.4367 4.79546 72.9623C3.31993 71.4878 2.15208 69.7527 1.29191 67.7569C0.43173 65.7612 0.00109506 63.6298 2.07528e-06 61.363C-0.00109091 59.0961 0.429544 56.9648 1.29191 54.969C2.15427 52.9733 3.32212 51.2382 4.79546 49.7637C6.2688 48.2893 8.00391 47.1214 10.0008 46.2602C11.9977 45.3989 14.129 44.9683 16.3947 44.9683C18.6605 44.9683 20.7918 45.3989 22.7887 46.2602C24.7855 47.1214 26.5207 48.2893 27.994 49.7637C29.4673 51.2382 30.6357 52.9733 31.4992 54.969C32.3626 56.9648 32.7927 59.0961 32.7895 61.363C32.7862 63.6298 32.3555 65.7612 31.4976 67.7569C30.6396 69.7527 29.4717 71.4878 27.994 72.9623C26.5163 74.4367 24.7812 75.6051 22.7887 76.4675C20.7962 77.3298 18.6649 77.7599 16.3947 77.7577Z" fill="#03001A"/>
<path d="M14.0995 113.873L25.6577 102.315L23.3625 100.02L14.0995 109.283L9.42697 104.61L7.13171 106.906L14.0995 113.873ZM16.3947 122.726C14.1268 122.726 11.9955 122.296 10.0008 121.435C8.00609 120.573 6.27099 119.405 4.79546 117.931C3.31993 116.457 2.15208 114.721 1.29191 112.726C0.43173 110.73 0.00109506 108.599 2.07528e-06 106.332C-0.00109091 104.065 0.429544 101.934 1.29191 99.9378C2.15427 97.942 3.32212 96.2069 4.79546 94.7325C6.2688 93.258 8.00391 92.0902 10.0008 91.2289C11.9977 90.3676 14.129 89.937 16.3947 89.937C18.6605 89.937 20.7918 90.3676 22.7887 91.2289C24.7855 92.0902 26.5207 93.258 27.994 94.7325C29.4673 96.2069 30.6357 97.942 31.4992 99.9378C32.3626 101.934 32.7927 104.065 32.7895 106.332C32.7862 108.599 32.3555 110.73 31.4976 112.726C30.6396 114.721 29.4717 116.457 27.994 117.931C26.5163 119.405 24.7812 120.574 22.7887 121.436C20.7962 122.299 18.6649 122.729 16.3947 122.726Z" fill="#03001A"/>
</svg>
